<svg width="25" height="25" viewBox="0 0 25 25" fill="none" xmlns="http://www.w3.org/2000/svg">
<g id="CaretDown">
<path id="Vector" d="M20.5306 10.0306L13.0306 17.5306C12.961 17.6003 12.8782 17.6556 12.7872 17.6933C12.6961 17.7311 12.5986 17.7505 12.5 17.7505C12.4014 17.7505 12.3038 17.7311 12.2128 17.6933C12.1217 17.6556 12.039 17.6003 11.9694 17.5306L4.46936 10.0306C4.32863 9.88982 4.24957 9.69895 4.24957 9.49993C4.24957 9.30091 4.32863 9.11003 4.46936 8.9693C4.6101 8.82857 4.80097 8.74951 4.99999 8.74951C5.19901 8.74951 5.38988 8.82857 5.53061 8.9693L12.5 15.9396L19.4694 8.9693C19.539 8.89962 19.6218 8.84435 19.7128 8.80663C19.8039 8.76892 19.9014 8.74951 20 8.74951C20.0985 8.74951 20.1961 8.76892 20.2872 8.80663C20.3782 8.84435 20.4609 8.89962 20.5306 8.9693C20.6003 9.03899 20.6556 9.12171 20.6933 9.21276C20.731 9.3038 20.7504 9.40138 20.7504 9.49993C20.7504 9.59847 20.731 9.69606 20.6933 9.7871C20.6556 9.87815 20.6003 9.96087 20.5306 10.0306Z" fill="#100F0F"/>
</g>
</svg>
