<svg width="194" height="39" viewBox="0 0 194 39" fill="none" xmlns="http://www.w3.org/2000/svg">
<path d="M19.3281 10.6094C19.3281 10.9531 19.3906 11.25 19.5156 11.5C19.6719 11.7188 19.75 11.9219 19.75 12.1094C19.6875 12.4219 19.75 12.7969 19.9375 13.2344C20.125 13.6406 20.2188 14.0625 20.2188 14.5C20.1562 14.6875 19.9062 14.9375 19.4688 15.25C19.0625 15.5312 18.5938 15.8438 18.0625 16.1875C17.5625 16.5312 17.0625 16.875 16.5625 17.2188C16.0938 17.5312 15.7656 17.7812 15.5781 17.9688C15.7344 18.2188 15.9219 18.4219 16.1406 18.5781C16.3906 18.7344 16.625 18.8906 16.8438 19.0469C17.0312 19.2031 17.2969 19.4375 17.6406 19.75C18.0156 20.0312 18.3906 20.3438 18.7656 20.6875C19.1719 21.0312 19.5312 21.3594 19.8438 21.6719C20.1875 21.9844 20.4062 22.2188 20.5 22.375C20.5625 22.4062 20.6094 22.5156 20.6406 22.7031C20.7031 22.8906 20.75 23.1094 20.7812 23.3594C20.8125 23.5781 20.8281 23.7969 20.8281 24.0156C20.8594 24.2344 20.875 24.375 20.875 24.4375C20.8438 24.7812 20.8438 25.0312 20.875 25.1875C20.9375 25.3438 20.9844 25.5156 21.0156 25.7031C21.0781 25.8594 21.125 26.0156 21.1562 26.1719C21.1875 26.3281 21.2031 26.4062 21.2031 26.4062C21.2031 26.5938 21.1094 26.7656 20.9219 26.9219C20.7656 27.0781 20.6094 27.2188 20.4531 27.3438C20.2969 27.4688 20.1406 27.5938 19.9844 27.7188C19.8594 27.8438 19.7188 27.9844 19.5625 28.1406C19.375 28.2969 19.1562 28.4531 18.9062 28.6094C18.6875 28.7344 18.4844 28.875 18.2969 29.0312C18.1719 29.0938 18.0625 29.1875 17.9688 29.3125C17.875 29.4062 17.7812 29.4844 17.6875 29.5469C17.4062 29.7969 17.0938 30.0469 16.75 30.2969C16.4062 30.5156 16.0781 30.7188 15.7656 30.9062C15.4219 31.125 15.0938 31.3594 14.7812 31.6094C14.4688 31.8281 14.1406 32.0625 13.7969 32.3125C13.3281 32.5938 12.8594 32.875 12.3906 33.1562C11.9531 33.4062 11.5156 33.6719 11.0781 33.9531C10.8594 34.1094 10.6406 34.2656 10.4219 34.4219C10.2344 34.5781 10.0312 34.7188 9.8125 34.8438C9.1875 35.1875 8.5625 35.5469 7.9375 35.9219C7.3125 36.2969 6.70312 36.7031 6.10938 37.1406C5.60938 37.2656 5.25 37.3594 5.03125 37.4219C4.8125 37.5156 4.59375 37.5625 4.375 37.5625C4.1875 37.5625 4.0625 37.4844 4 37.3281C3.96875 37.2031 3.89062 37.1406 3.76562 37.1406C3.29688 37.2031 3.03125 37.2031 2.96875 37.1406C2.9375 37.1094 2.875 37.0625 2.78125 37C2.3125 37.0625 1.92188 37.0625 1.60938 37C1.51562 36.8438 1.45312 36.6562 1.42188 36.4375C1.39062 36.1875 1.29688 35.9844 1.14062 35.8281C1.20312 35.5156 1.20312 35.2188 1.14062 34.9375C1.10938 34.6562 1.125 34.375 1.1875 34.0938C1.09375 33.7188 1.04688 33.375 1.04688 33.0625C1.04688 32.6562 1.09375 32.2344 1.1875 31.7969C1.09375 31.5156 1.04688 31.2344 1.04688 30.9531C1.04688 30.7031 1.0625 30.4531 1.09375 30.2031C1.125 29.9531 1.14062 29.7031 1.14062 29.4531C1.14062 29.1406 1.07812 28.8594 0.953125 28.6094C0.953125 28.0469 0.9375 27.5 0.90625 26.9688C0.90625 26.4062 0.90625 25.8438 0.90625 25.2812C0.90625 25.0312 0.90625 24.7812 0.90625 24.5312C0.90625 24.2812 0.921875 24.0156 0.953125 23.7344C0.921875 23.5781 0.90625 23.3438 0.90625 23.0312C0.90625 22.8438 0.9375 22.6875 1 22.5625C1.0625 22.4062 1.09375 22.25 1.09375 22.0938C1.09375 21.75 1.0625 21.4219 1 21.1094C0.96875 20.7969 0.953125 20.4688 0.953125 20.125C0.953125 19.8125 0.96875 19.5156 1 19.2344C1.0625 18.9531 1.09375 18.6562 1.09375 18.3438C1 18.2188 0.9375 18.0781 0.90625 17.9219C0.875 17.7656 0.859375 17.6094 0.859375 17.4531C0.859375 17.3281 0.890625 17.1406 0.953125 16.8906C0.953125 16.6406 0.9375 16.375 0.90625 16.0938C0.875 15.8125 0.859375 15.5469 0.859375 15.2969C0.859375 15.1719 0.859375 15.0625 0.859375 14.9688C0.890625 14.875 0.921875 14.7656 0.953125 14.6406C0.890625 14.4219 0.859375 14.2031 0.859375 13.9844C0.859375 13.7656 0.859375 13.5469 0.859375 13.3281C0.859375 13.0469 0.875 12.7656 0.90625 12.4844C0.9375 12.1719 0.953125 11.875 0.953125 11.5938C0.921875 11.125 0.921875 10.7656 0.953125 10.5156C1.01562 10.2344 1.0625 9.95312 1.09375 9.67188V7C1.09375 6.75 1.0625 6.48438 1 6.20312C0.9375 5.89062 0.90625 5.59375 0.90625 5.3125C0.90625 5.15625 0.921875 4.92187 0.953125 4.60938C0.984375 4.29688 1.03125 4.0625 1.09375 3.90625C1.53125 3.25 2.04688 2.875 2.64062 2.78125C2.76562 2.71875 2.85938 2.64062 2.92188 2.54688C2.98438 2.42188 3.125 2.35938 3.34375 2.35938C3.71875 2.04688 3.96875 1.8125 4.09375 1.65625C4.21875 1.46875 4.375 1.29688 4.5625 1.14062C4.65625 1.14062 4.73438 1.125 4.79688 1.09375C4.89062 1.03125 5 1 5.125 1C5.34375 1.0625 5.51562 1.125 5.64062 1.1875C5.79688 1.25 5.95312 1.29688 6.10938 1.32812C6.73438 1.79688 7.34375 2.26562 7.9375 2.73438C8.5625 3.17188 9.1875 3.64063 9.8125 4.14062C10.0938 4.39063 10.3594 4.64062 10.6094 4.89062C10.8906 5.14062 11.1719 5.375 11.4531 5.59375C11.6094 5.6875 11.7812 5.78125 11.9688 5.875C12.1562 5.96875 12.3281 6.07812 12.4844 6.20312C12.8281 6.42188 13.1719 6.65625 13.5156 6.90625C13.8594 7.125 14.2031 7.34375 14.5469 7.5625L17.9219 9.67188C18.1719 9.82812 18.4062 9.98438 18.625 10.1406C18.875 10.2969 19.1094 10.4531 19.3281 10.6094ZM12.625 12.625C12.1562 12.4062 11.7031 12.1406 11.2656 11.8281C10.8594 11.5156 10.4219 11.2812 9.95312 11.125C9.70312 10.875 9.4375 10.7031 9.15625 10.6094C8.875 10.5156 8.60938 10.375 8.35938 10.1875C8.07812 9.9375 7.82812 9.71875 7.60938 9.53125C7.39062 9.34375 7.10938 9.17188 6.76562 9.01562C6.60938 9.98438 6.48438 10.9375 6.39062 11.875C6.32812 12.7812 6.29688 13.7031 6.29688 14.6406C6.29688 15.6094 6.39062 16.5312 6.57812 17.4062C6.92188 17.25 7.25 17.0781 7.5625 16.8906C7.875 16.7031 8.1875 16.5156 8.5 16.3281C8.625 16.2656 8.73438 16.2031 8.82812 16.1406C8.95312 16.0781 9.09375 16.0156 9.25 15.9531C9.40625 15.8281 9.5625 15.7031 9.71875 15.5781C9.875 15.4531 10.0312 15.3438 10.1875 15.25C10.5312 15 10.8594 14.7812 11.1719 14.5938C11.5156 14.375 11.8594 14.1406 12.2031 13.8906C12.3594 13.7656 12.5312 13.6719 12.7188 13.6094C12.9062 13.5156 13.0938 13.3906 13.2812 13.2344C13.25 13.1094 13.1406 13.0156 12.9531 12.9531C12.7969 12.8594 12.6875 12.75 12.625 12.625ZM11.2656 21.3906C11.1719 21.3906 11.0781 21.375 10.9844 21.3438C10.8906 21.2812 10.7812 21.25 10.6562 21.25C10.2812 21.5 9.92188 21.7188 9.57812 21.9062C9.26562 22.0625 8.9375 22.25 8.59375 22.4688C8.4375 22.5625 8.28125 22.6719 8.125 22.7969C7.96875 22.9219 7.8125 23.0156 7.65625 23.0781C7.25 23.3281 6.9375 23.5469 6.71875 23.7344C6.5 23.8906 6.32812 24.0938 6.20312 24.3438C6.26562 25.2188 6.28125 26.0938 6.25 26.9688C6.25 27.8438 6.25 28.7344 6.25 29.6406C6.25 29.7969 6.29688 29.9688 6.39062 30.1562C6.67188 30.125 7.17188 29.9219 7.89062 29.5469C8.60938 29.1406 9.35938 28.6875 10.1406 28.1875C10.9531 27.6875 11.7188 27.2031 12.4375 26.7344C13.1875 26.2656 13.7344 25.9219 14.0781 25.7031C14.3281 25.6406 14.6094 25.5156 14.9219 25.3281C15.2656 25.1406 15.4688 24.9219 15.5312 24.6719C14.9375 23.9844 14.25 23.4219 13.4688 22.9844C12.6875 22.5156 11.9531 21.9844 11.2656 21.3906ZM42.3906 28.9844C42.6094 29.2656 42.7344 29.5 42.7656 29.6875C42.8281 29.8438 42.8906 30.0156 42.9531 30.2031C43.0156 30.3594 43.0625 30.5156 43.0938 30.6719C43.1562 30.8281 43.1875 30.9219 43.1875 30.9531C43.1875 31.1719 43.1406 31.3594 43.0469 31.5156C42.9844 31.6406 42.875 31.8125 42.7188 32.0312C41.4688 32.5 40.2344 32.9688 39.0156 33.4375C37.7969 33.875 36.5469 34.3125 35.2656 34.75C34.9219 34.8438 34.6094 34.9531 34.3281 35.0781C34.0469 35.1719 33.7344 35.25 33.3906 35.3125C33.3281 35.375 33.2188 35.4375 33.0625 35.5C32.9375 35.5312 32.7812 35.5781 32.5938 35.6406C32.4062 35.7031 32.2188 35.7656 32.0312 35.8281C31.875 35.8594 31.7656 35.875 31.7031 35.875C31.4531 35.9375 31.1719 35.9688 30.8594 35.9688C30.5781 35.9375 30.2969 35.9375 30.0156 35.9688C29.8594 36 29.75 36.0781 29.6875 36.2031C29.625 36.3281 29.5469 36.4688 29.4531 36.625C29.3906 36.75 29.2812 36.875 29.125 37C28.9688 37.0938 28.75 37.1406 28.4688 37.1406C28.1875 37.1406 27.9062 37.125 27.625 37.0938C27.3438 37.0625 27.0469 36.9844 26.7344 36.8594C26.6719 36.7656 26.6406 36.6562 26.6406 36.5312C26.6719 36.375 26.6562 36.25 26.5938 36.1562C26.3125 36.125 26.0938 36.1562 25.9375 36.25C25.7812 36.3125 25.625 36.3594 25.4688 36.3906C25.375 36.2656 25.2969 36.125 25.2344 35.9688C25.2031 35.7812 25.125 35.625 25 35.5C24.9688 35.3438 24.9531 35.1875 24.9531 35.0312C24.9531 34.875 24.9531 34.7188 24.9531 34.5625C24.9531 34.3438 24.9531 34.0938 24.9531 33.8125C24.9844 33.5 25.0469 33.2656 25.1406 33.1094C25.2344 31.3281 25.2812 29.5469 25.2812 27.7656C25.2812 25.9844 25.2812 24.2031 25.2812 22.4219C25.2812 22.2344 25.2812 22 25.2812 21.7188C25.2812 21.4062 25.2656 21.0938 25.2344 20.7812C25.2344 20.4688 25.2188 20.1875 25.1875 19.9375C25.1875 19.6562 25.1719 19.4531 25.1406 19.3281C25.1719 19.1094 25.1875 18.9062 25.1875 18.7188C25.1875 18.5 25.1875 18.2812 25.1875 18.0625C25.1875 17.875 25.1875 17.7031 25.1875 17.5469C25.1875 17.3906 25.1562 17.2344 25.0938 17.0781C25.125 16.9531 25.1406 16.7812 25.1406 16.5625C25.1406 16.4062 25.125 16.25 25.0938 16.0938C25.0625 15.9375 25.0469 15.7812 25.0469 15.625C25.0469 15.375 25.0469 15.1406 25.0469 14.9219C25.0781 14.6719 25.0938 14.4219 25.0938 14.1719C25.0938 13.3594 25.0469 12.5625 24.9531 11.7812C24.8906 10.9688 24.8594 10.1562 24.8594 9.34375C24.8594 8.28125 24.8438 7.21875 24.8125 6.15625C24.8125 5.09375 24.7969 4.03125 24.7656 2.96875C24.8906 2.65625 24.9531 2.39062 24.9531 2.17188C25.3906 1.95313 25.7344 1.875 25.9844 1.9375C26.2344 2 26.4844 2.03125 26.7344 2.03125C26.8906 2.03125 27.0312 2.01562 27.1562 1.98438C27.2812 1.95313 27.4062 1.90625 27.5312 1.84375C27.6875 1.875 27.8125 1.92187 27.9062 1.98438C28.0312 2.01562 28.1719 2.03125 28.3281 2.03125C28.7969 1.9375 29.0469 1.92187 29.0781 1.98438C29.1406 2.04688 29.2188 2.10937 29.3125 2.17188C29.4375 2.14063 29.5312 2.09375 29.5938 2.03125C29.6875 1.9375 29.7969 1.89062 29.9219 1.89062C30.1094 1.89062 30.25 2.01562 30.3438 2.26562C30.4375 2.48437 30.5469 2.67187 30.6719 2.82812C30.6719 3.17188 30.7344 3.48438 30.8594 3.76562C30.9219 5.04688 30.9375 6.3125 30.9062 7.5625C30.9062 8.8125 30.9531 10.0625 31.0469 11.3125C31.0781 11.875 31.1094 12.4688 31.1406 13.0938C31.2031 13.6875 31.2344 14.2656 31.2344 14.8281C31.2344 15.7656 31.2344 16.7188 31.2344 17.6875C31.2656 18.625 31.2812 19.5781 31.2812 20.5469C31.2812 20.7031 31.2812 20.8438 31.2812 20.9688C31.3125 21.0938 31.3281 21.2344 31.3281 21.3906C31.3281 21.7656 31.3125 22.125 31.2812 22.4688C31.25 22.8125 31.2344 23.1562 31.2344 23.5V27.1562C31.2344 27.4688 31.2188 27.7969 31.1875 28.1406C31.1875 28.4531 31.2031 28.7656 31.2344 29.0781L31.4219 29.6406C31.7656 29.5156 32.1094 29.3906 32.4531 29.2656C32.8281 29.1094 33.2188 29 33.625 28.9375C33.875 28.875 34.1094 28.8125 34.3281 28.75C34.5469 28.6875 34.7812 28.625 35.0312 28.5625C35.4688 28.3125 35.8125 28.1406 36.0625 28.0469C36.3125 27.9531 36.5625 27.8594 36.8125 27.7656C37.3438 27.5781 37.8594 27.3906 38.3594 27.2031C38.8594 26.9844 39.375 26.7812 39.9062 26.5938C40.1562 26.6562 40.3594 26.625 40.5156 26.5C40.8281 26.5625 41.1094 26.5938 41.3594 26.5938C41.7031 26.9375 41.9062 27.2031 41.9688 27.3906C42.0625 27.5781 42.1875 27.75 42.3438 27.9062C42.2812 28.0625 42.2812 28.1562 42.3438 28.1875C42.4375 28.2188 42.5 28.2969 42.5312 28.4219C42.6562 28.4844 42.6719 28.5781 42.5781 28.7031C42.4844 28.7969 42.4219 28.8906 42.3906 28.9844ZM68.3594 18.3906C68.2969 18.5156 68.2344 18.6406 68.1719 18.7656C68.1094 18.8594 68.0625 18.9688 68.0312 19.0938C68.1562 19.2188 68.2656 19.3594 68.3594 19.5156C68.4844 19.6406 68.5469 19.7812 68.5469 19.9375C68.5469 20.0625 68.5156 20.1875 68.4531 20.3125C68.4219 20.4062 68.4219 20.5 68.4531 20.5938C68.3281 20.8125 68.1875 21.0156 68.0312 21.2031C67.9062 21.3906 67.8125 21.5938 67.75 21.8125C67.625 21.9375 67.5156 22.0625 67.4219 22.1875C67.3594 22.3125 67.2969 22.4375 67.2344 22.5625C67.0781 22.625 66.9688 22.7344 66.9062 22.8906C66.875 23.0156 66.7969 23.125 66.6719 23.2188C66.6406 23.3438 66.4844 23.6406 66.2031 24.1094C65.9219 24.5781 65.6094 25.0781 65.2656 25.6094C64.9219 26.1406 64.5938 26.6562 64.2812 27.1562C63.9688 27.6562 63.75 27.9844 63.625 28.1406C63.5625 28.2969 63.4844 28.4219 63.3906 28.5156C63.3281 28.6094 63.25 28.7188 63.1562 28.8438C63.0938 28.9375 63.0469 29.0469 63.0156 29.1719C62.9844 29.2656 62.9375 29.3438 62.875 29.4062C62.8125 29.5312 62.7344 29.6406 62.6406 29.7344C62.5781 29.8281 62.5156 29.9531 62.4531 30.1094C62.1406 30.5156 61.8281 31 61.5156 31.5625C61.2031 32.125 60.9062 32.625 60.625 33.0625C60.4688 33.3125 60.3125 33.5625 60.1562 33.8125C60.0312 34.0625 59.8906 34.3125 59.7344 34.5625C59.5781 34.8125 59.4219 35.0469 59.2656 35.2656C59.1094 35.4844 58.9531 35.7188 58.7969 35.9688C58.5469 36.1562 58.3281 36.3906 58.1406 36.6719C57.9531 36.9219 57.7344 37.1406 57.4844 37.3281C57.0781 37.3281 56.8281 37.1406 56.7344 36.7656C56.3281 36.6719 56.125 36.6719 56.125 36.7656C56.125 36.8594 56.125 36.9375 56.125 37C56 37.0625 55.9062 37.1562 55.8438 37.2812C55.8125 37.4062 55.7344 37.5 55.6094 37.5625C55.3594 37.5 55.1406 37.3906 54.9531 37.2344C54.7969 37.1094 54.5625 37.0625 54.25 37.0938C54.125 36.9062 53.9844 36.75 53.8281 36.625C53.6719 36.4688 53.5312 36.3125 53.4062 36.1562C53.3438 35.9688 53.25 35.8125 53.125 35.6875C53.0312 35.5625 52.9375 35.4375 52.8438 35.3125C52.75 35.1562 52.6562 35.0156 52.5625 34.8906C52.4688 34.7656 52.375 34.6406 52.2812 34.5156C52.0625 34.2344 51.8438 33.9688 51.625 33.7188C51.4375 33.4375 51.2656 33.1562 51.1094 32.875C50.8594 32.5 50.6094 32.125 50.3594 31.75C50.1406 31.3438 49.9062 30.9531 49.6562 30.5781C49.5312 30.3906 49.4062 30.2031 49.2812 30.0156C49.1562 29.8281 49.0469 29.6406 48.9531 29.4531C48.8906 29.2969 48.7969 29.1094 48.6719 28.8906C48.5781 28.6719 48.4531 28.5312 48.2969 28.4688C48.2344 28.2188 48.125 28.0312 47.9688 27.9062C47.8125 27.7812 47.6562 27.625 47.5 27.4375C47.2812 27.1875 47.0781 26.9219 46.8906 26.6406C46.7031 26.3281 46.5156 26.0156 46.3281 25.7031C45.7031 24.8281 45.1094 23.9688 44.5469 23.125C44.0156 22.2812 43.4844 21.4062 42.9531 20.5C43.1094 20 43.1875 19.625 43.1875 19.375C43.1875 19.125 43.2656 18.9219 43.4219 18.7656C43.4219 18.6406 43.4531 18.4531 43.5156 18.2031C43.9219 17.5156 44.3125 16.8906 44.6875 16.3281C45.0312 15.7969 45.2656 15.3594 45.3906 15.0156C45.5469 14.6719 45.7031 14.3125 45.8594 13.9375C46.0156 13.8438 46.1406 13.7344 46.2344 13.6094C46.3281 13.4531 46.4531 13.3125 46.6094 13.1875C46.6719 12.8438 46.8125 12.5625 47.0312 12.3438C47.25 12.0938 47.3906 11.7969 47.4531 11.4531C47.7344 11.2344 47.8906 10.9844 47.9219 10.7031C48.3281 10.4219 48.5781 10.0469 48.6719 9.57812C48.9219 9.32812 49.125 9.04688 49.2812 8.73438C49.4688 8.42188 49.6406 8.09375 49.7969 7.75C50.1719 7.4375 50.4688 7.03125 50.6875 6.53125C50.875 6.40625 51.0156 6.23438 51.1094 6.01562C51.2031 5.79688 51.3281 5.60938 51.4844 5.45312C51.7344 5.04688 51.9219 4.71875 52.0469 4.46875C52.2031 4.1875 52.3594 3.90625 52.5156 3.625C52.7344 3.625 52.875 3.54688 52.9375 3.39062C53 3.23437 53.125 3.17188 53.3125 3.20312C53.3125 2.92188 53.3906 2.67187 53.5469 2.45312C53.6094 2.42188 53.7031 2.39062 53.8281 2.35938C53.9531 2.29687 54.0156 2.23438 54.0156 2.17188C53.9531 1.79688 53.9688 1.57813 54.0625 1.51562C54.1562 1.45312 54.2344 1.39063 54.2969 1.32812C54.6406 1.39063 54.875 1.4375 55 1.46875C55.125 1.5 55.3281 1.60938 55.6094 1.79688C55.9219 1.79688 56.1406 1.85938 56.2656 1.98438C56.3906 2.10937 56.5312 2.20312 56.6875 2.26562C56.8125 2.39062 56.9062 2.51563 56.9688 2.64062C57.0625 2.76562 57.1875 2.85937 57.3438 2.92188C57.5938 3.26563 57.8594 3.64063 58.1406 4.04688C58.4219 4.45312 58.6875 4.82812 58.9375 5.17188C59.2812 5.64062 59.625 6.09375 59.9688 6.53125C60.3438 6.9375 60.6875 7.39062 61 7.89062C61.0938 8.04688 61.2656 8.32812 61.5156 8.73438C61.7656 9.10938 62.0469 9.51562 62.3594 9.95312C62.6719 10.3906 62.9531 10.7969 63.2031 11.1719C63.4531 11.5156 63.625 11.7188 63.7188 11.7812C63.8125 11.9375 64.0156 12.2344 64.3281 12.6719C64.6406 13.1094 64.9688 13.5781 65.3125 14.0781C65.6875 14.5469 66.0469 15 66.3906 15.4375C66.7344 15.875 66.9688 16.1562 67.0938 16.2812C67.4375 16.75 67.6875 17.1406 67.8438 17.4531C68.0312 17.7344 68.2031 18.0469 68.3594 18.3906ZM57.625 27.2031C57.9688 26.7344 58.2344 26.3125 58.4219 25.9375C58.6094 25.5625 58.7969 25.1875 58.9844 24.8125C59.2969 24.4375 59.4844 24.1719 59.5469 24.0156C59.6094 23.8594 59.6875 23.7031 59.7812 23.5469C60.0312 23.1719 60.2812 22.7969 60.5312 22.4219C60.8125 22.0469 61.0312 21.6406 61.1875 21.2031C61.375 21.0781 61.5156 20.9219 61.6094 20.7344C61.7031 20.5469 61.8438 20.375 62.0312 20.2188C61.8438 19.5625 61.625 19.0625 61.375 18.7188C61.125 18.3438 60.875 17.9844 60.625 17.6406C60.5312 17.4844 60.4375 17.3281 60.3438 17.1719C60.25 17.0156 60.1562 16.8594 60.0625 16.7031C59.9375 16.6094 59.8281 16.5156 59.7344 16.4219C59.6719 16.3281 59.5938 16.2344 59.5 16.1406C59.4375 15.9844 59.3438 15.7812 59.2188 15.5312C59.0938 15.375 58.9688 15.2344 58.8438 15.1094C58.7188 14.9844 58.6094 14.8281 58.5156 14.6406C58.3906 14.5156 58.2344 14.3438 58.0469 14.125C57.8594 13.9062 57.6562 13.6719 57.4375 13.4219C57.25 13.1406 57.0781 12.8906 56.9219 12.6719C56.7656 12.4219 56.6406 12.2188 56.5469 12.0625C56.4844 11.9062 56.4219 11.7812 56.3594 11.6875C56.3281 11.5625 56.2812 11.4375 56.2188 11.3125C56.0625 11.0938 55.9062 10.9062 55.75 10.75C55.5938 10.5625 55.4375 10.3594 55.2812 10.1406C55.1875 10.2031 55.0938 10.25 55 10.2812C54.9375 10.2812 54.875 10.3125 54.8125 10.375C54.5938 10.7812 54.3438 11.1562 54.0625 11.5C53.8125 11.8438 53.5625 12.2188 53.3125 12.625C53.0938 13 52.875 13.3906 52.6562 13.7969C52.4375 14.1719 52.2188 14.5469 52 14.9219C51.8438 15.1406 51.6875 15.3594 51.5312 15.5781C51.4062 15.7656 51.2656 15.9844 51.1094 16.2344C50.9531 16.4531 50.8125 16.6875 50.6875 16.9375C50.5938 17.1562 50.4688 17.375 50.3125 17.5938C50.0625 17.9062 49.8594 18.1875 49.7031 18.4375C49.5469 18.6875 49.3906 18.9844 49.2344 19.3281C49.3281 19.5156 49.4688 19.7812 49.6562 20.125C49.875 20.4375 50.0938 20.7656 50.3125 21.1094C50.5312 21.4219 50.7188 21.7188 50.875 22C51.0625 22.2812 51.1719 22.4688 51.2031 22.5625C51.4531 22.7812 51.6562 23.0312 51.8125 23.3125C51.9688 23.5625 52.1719 23.8125 52.4219 24.0625C52.5469 24.3125 52.6875 24.5312 52.8438 24.7188C53 24.9062 53.1562 25.1094 53.3125 25.3281C53.4688 25.5469 53.6719 25.875 53.9219 26.3125C54.1719 26.7188 54.4219 27.1406 54.6719 27.5781C54.9219 28.0156 55.1719 28.4219 55.4219 28.7969C55.6719 29.1719 55.875 29.4062 56.0312 29.5C56.3438 29.1562 56.5938 28.7812 56.7812 28.375C57 27.9375 57.2812 27.5469 57.625 27.2031ZM95.7812 19.0469C95.8438 19.2656 95.9688 19.5 96.1562 19.75C96.3438 20 96.4375 20.1875 96.4375 20.3125C96.1875 20.9062 96 21.375 95.875 21.7188C95.75 22.0312 95.5469 22.3125 95.2656 22.5625C95.2656 22.6562 95.1719 22.8594 94.9844 23.1719C94.7969 23.4844 94.5781 23.8281 94.3281 24.2031C94.1094 24.5469 93.875 24.8906 93.625 25.2344C93.4062 25.5469 93.2656 25.7656 93.2031 25.8906C93.0469 26.1406 92.9219 26.3906 92.8281 26.6406C92.7344 26.8594 92.625 27.0781 92.5 27.2969C92.2188 27.7969 91.9219 28.2656 91.6094 28.7031C91.3281 29.1406 91.0625 29.625 90.8125 30.1562C90.6562 30.3125 90.5156 30.4844 90.3906 30.6719C90.2656 30.8594 90.125 31.0312 89.9688 31.1875C89.5938 31.875 89.1562 32.5156 88.6562 33.1094C88.1875 33.7031 87.75 34.3594 87.3438 35.0781C87.6875 35.4219 87.8594 35.8594 87.8594 36.3906C87.8594 36.6719 87.7812 36.8281 87.625 36.8594C87.4688 36.8594 87.3281 36.8906 87.2031 36.9531C86.8906 37.1719 86.6094 37.2969 86.3594 37.3281C86.1094 37.3594 85.9062 37.375 85.75 37.375C85.4062 37.375 85.0312 37.3594 84.625 37.3281C84.2188 37.3281 83.875 37.3594 83.5938 37.4219C83.5 37.4531 83.3906 37.5 83.2656 37.5625C83.1406 37.6562 83.0469 37.7031 82.9844 37.7031C82.7344 37.7031 82.5469 37.6562 82.4219 37.5625C82.3281 37.5 82.1875 37.4375 82 37.375C81.75 37.0938 81.5156 36.7969 81.2969 36.4844C81.1094 36.1719 80.9062 35.8594 80.6875 35.5469C80.5 35.3281 80.2969 35.1406 80.0781 34.9844C79.8594 34.7969 79.6562 34.5781 79.4688 34.3281C78.9688 33.6094 78.4531 32.9219 77.9219 32.2656C77.4219 31.6094 76.9062 30.9531 76.375 30.2969C76.125 29.9531 75.8438 29.625 75.5312 29.3125C75.25 29 74.9844 28.6875 74.7344 28.375C74.4844 28.0312 74.25 27.6719 74.0312 27.2969C73.8125 26.9219 73.5781 26.5625 73.3281 26.2188C73.1406 25.9062 72.875 25.5312 72.5312 25.0938C72.1875 24.625 71.8281 24.1562 71.4531 23.6875C71.0781 23.2188 70.6875 22.7812 70.2812 22.375C69.9062 21.9375 69.5781 21.6094 69.2969 21.3906C69.2969 21.1719 69.2344 21.0156 69.1094 20.9219C68.9844 20.8281 68.8438 20.7188 68.6875 20.5938C68.625 20.4375 68.5469 20.2969 68.4531 20.1719C68.3594 20.0156 68.3125 19.8438 68.3125 19.6562C68.3125 19.4375 68.3594 19.2344 68.4531 19.0469C68.5156 18.9219 68.5469 18.8125 68.5469 18.7188C68.5781 18.5938 68.625 18.4688 68.6875 18.3438C68.8438 17.9375 69.0625 17.5781 69.3438 17.2656C69.6562 16.9531 69.8906 16.5938 70.0469 16.1875C70.0781 16.0625 70.0938 15.9531 70.0938 15.8594C70.0938 15.7344 70.125 15.6094 70.1875 15.4844C70.2812 15.2656 70.4219 15.0781 70.6094 14.9219C70.7969 14.7344 70.9688 14.5312 71.125 14.3125C71.2812 14.0312 71.4375 13.75 71.5938 13.4688C71.75 13.1875 71.9062 12.9062 72.0625 12.625C72.5 11.9062 72.9844 11.2188 73.5156 10.5625C74.0469 9.875 74.5469 9.20312 75.0156 8.54688C75.4531 7.92188 75.8594 7.3125 76.2344 6.71875C76.6094 6.09375 77.0156 5.46875 77.4531 4.84375C77.6719 4.53125 77.9219 4.1875 78.2031 3.8125C78.4844 3.40625 78.7656 3.01562 79.0469 2.64062C79.3594 2.26562 79.6719 1.92187 79.9844 1.60938C80.2969 1.26562 80.6094 1.01563 80.9219 0.859375C81.4531 0.796875 81.7969 0.890625 81.9531 1.14062C82.1094 1.35937 82.3281 1.46875 82.6094 1.46875C83.0469 1.5625 83.3438 1.70312 83.5 1.89062C83.6562 2.07812 83.8125 2.25 83.9688 2.40625C84.375 2.40625 84.7188 2.48437 85 2.64062C85.2812 2.79688 85.5625 3.03125 85.8438 3.34375C85.7188 3.6875 85.5469 4 85.3281 4.28125C85.1406 4.5625 84.9688 4.85938 84.8125 5.17188C84.5625 5.26562 84.375 5.42188 84.25 5.64062C84.1562 5.85938 84 6.04688 83.7812 6.20312C83.4375 6.73438 83.0938 7.26562 82.75 7.79688C82.4062 8.29688 82.0625 8.78125 81.7188 9.25C81.5625 9.4375 81.3906 9.59375 81.2031 9.71875C81.0156 9.8125 80.8438 9.96875 80.6875 10.1875C80.625 10.2812 80.5781 10.3906 80.5469 10.5156C80.5156 10.6094 80.4688 10.7031 80.4062 10.7969C80.0312 11.3906 79.6094 11.9688 79.1406 12.5312C78.6719 13.0938 78.2656 13.6875 77.9219 14.3125C77.7656 14.5312 77.6406 14.7656 77.5469 15.0156C77.4531 15.2344 77.3438 15.4531 77.2188 15.6719C77.0938 15.8906 76.9062 16.1719 76.6562 16.5156C76.4375 16.8281 76.2031 17.1562 75.9531 17.5C75.7344 17.8438 75.5312 18.1875 75.3438 18.5312C75.1875 18.875 75.1094 19.1562 75.1094 19.375C75.1406 19.5312 75.3438 19.8438 75.7188 20.3125C76.0938 20.7812 76.5156 21.2812 76.9844 21.8125C77.4531 22.3438 77.8906 22.8594 78.2969 23.3594C78.7344 23.8281 79 24.1094 79.0938 24.2031C79.1562 24.3594 79.3906 24.7031 79.7969 25.2344C80.2031 25.7344 80.6562 26.2969 81.1562 26.9219C81.6875 27.5156 82.2031 28.0938 82.7031 28.6562C83.2031 29.2188 83.5469 29.625 83.7344 29.875L84.1094 30.4844C84.1719 30.4531 84.3281 30.2344 84.5781 29.8281C84.8594 29.4219 85.1406 28.9688 85.4219 28.4688C85.7031 27.9688 85.9531 27.5 86.1719 27.0625C86.4219 26.625 86.5781 26.3438 86.6406 26.2188C86.7344 26.125 86.8906 25.875 87.1094 25.4688C87.3281 25.0625 87.5625 24.625 87.8125 24.1562C88.0938 23.6875 88.3281 23.25 88.5156 22.8438C88.7344 22.4375 88.8594 22.1719 88.8906 22.0469H88.3281C87.8281 22.0469 87.3281 22.0781 86.8281 22.1406C86.3594 22.1719 85.875 22.2656 85.375 22.4219C85.1562 22.3906 84.9688 22.3281 84.8125 22.2344C84.6562 22.1406 84.4688 22.0469 84.25 21.9531C84.1562 21.6406 84.1094 21.4219 84.1094 21.2969C84.1406 21.1719 84.1406 21.0781 84.1094 21.0156C84.0781 20.8906 84.0312 20.7969 83.9688 20.7344C83.9375 20.6719 83.9219 20.5781 83.9219 20.4531C83.9219 20.2344 83.8906 20.0625 83.8281 19.9375C83.7656 19.7812 83.7031 19.6094 83.6406 19.4219C83.6406 19.2969 83.6406 19.1719 83.6406 19.0469C83.6719 18.9219 83.6562 18.8125 83.5938 18.7188C83.6562 18.1562 83.6094 17.75 83.4531 17.5C83.4531 17.0625 83.5156 16.7812 83.6406 16.6562C83.7656 16.5312 83.8594 16.3438 83.9219 16.0938C84.2031 16.1875 84.4375 16.1719 84.625 16.0469C84.8438 15.8906 85.0625 15.8125 85.2812 15.8125C85.7812 15.8125 86.1875 15.7344 86.5 15.5781C86.7812 15.5469 87.0625 15.5312 87.3438 15.5312C87.6562 15.5312 87.9531 15.5 88.2344 15.4375C88.3906 15.4062 88.5156 15.375 88.6094 15.3438C88.7344 15.3125 88.875 15.2812 89.0312 15.25C89.2188 15.2188 89.4219 15.2031 89.6406 15.2031C89.8594 15.2031 90.0625 15.2031 90.25 15.2031C90.75 15.1406 91.25 15.1094 91.75 15.1094C92.25 15.0781 92.75 15.0469 93.25 15.0156C93.4062 15.0781 93.5469 15.125 93.6719 15.1562C93.8281 15.1875 93.9688 15.2344 94.0938 15.2969C94.1875 15.3594 94.2656 15.4375 94.3281 15.5312C94.3906 15.5938 94.5 15.6406 94.6562 15.6719C94.8125 15.8281 94.9219 15.9844 94.9844 16.1406C94.9219 16.4219 94.9375 16.625 95.0312 16.75C94.875 16.9062 94.7812 17.125 94.75 17.4062C94.75 17.6562 94.7344 17.8906 94.7031 18.1094C94.9219 18.1719 95.1094 18.3438 95.2656 18.625C95.4219 18.9062 95.5312 19.0469 95.5938 19.0469H95.7812ZM109 1.51562C109.156 2.07812 109.312 2.64062 109.469 3.20312C109.625 3.73438 109.812 4.26562 110.031 4.79688C110.5 4.85938 110.781 4.90625 110.875 4.9375C111 4.96875 111.141 5.01562 111.297 5.07812C111.641 5.89062 111.844 6.76562 111.906 7.70312C112 8.60938 112.125 9.5 112.281 10.375C112.875 11.1562 113.297 12 113.547 12.9062C113.828 13.7812 114.141 14.6719 114.484 15.5781C114.578 15.8906 114.641 16.0938 114.672 16.1875C114.703 16.25 114.719 16.3125 114.719 16.375C114.906 16.9062 115.094 17.4531 115.281 18.0156C115.469 18.5781 115.672 19.125 115.891 19.6562C115.984 19.9375 116.078 20.2188 116.172 20.5C116.297 20.75 116.406 21 116.5 21.25C116.594 21.5625 116.672 21.8906 116.734 22.2344C116.828 22.5469 116.922 22.8594 117.016 23.1719C117.234 23.7969 117.469 24.4219 117.719 25.0469C117.969 25.6719 118.219 26.2969 118.469 26.9219C118.562 27.1406 118.734 27.625 118.984 28.375C119.266 29.125 119.547 29.9219 119.828 30.7656C120.109 31.5781 120.359 32.3438 120.578 33.0625C120.828 33.75 120.953 34.1719 120.953 34.3281C120.953 34.5781 120.969 34.8438 121 35.125C121.062 35.375 121.109 35.6406 121.141 35.9219C121.016 36.2344 120.859 36.4062 120.672 36.4375C120.484 36.4688 120.312 36.4531 120.156 36.3906C120 36.4531 119.844 36.5156 119.688 36.5781C119.562 36.6406 119.438 36.7031 119.312 36.7656C119.219 36.7969 119.141 36.8438 119.078 36.9062C119.016 36.9688 118.938 37 118.844 37C118.469 37 118.219 37.0312 118.094 37.0938C118 37.1875 117.844 37.2344 117.625 37.2344C117.344 37.1406 117.156 37.125 117.062 37.1875C117 37.2812 116.938 37.3438 116.875 37.375C116.75 37.4375 116.609 37.4688 116.453 37.4688C116.297 37.4688 116.141 37.4844 115.984 37.5156C115.922 37.3906 115.859 37.2656 115.797 37.1406C115.766 37.0156 115.703 36.875 115.609 36.7188C115.266 36.2188 115.016 35.7344 114.859 35.2656C114.734 34.7969 114.625 34.4219 114.531 34.1406C114.375 33.7969 114.234 33.4531 114.109 33.1094C114.016 32.7656 113.891 32.4219 113.734 32.0781C113.547 32.1406 113.375 32.2188 113.219 32.3125C113.062 32.375 112.938 32.4688 112.844 32.5938C112.469 32.5938 112.281 32.6406 112.281 32.7344C112.281 32.8281 112.25 32.9219 112.188 33.0156C112 33.0781 111.844 33.1406 111.719 33.2031C111.625 33.2656 111.453 33.2812 111.203 33.25C111.047 33.4062 110.891 33.5469 110.734 33.6719C110.578 33.7656 110.375 33.8281 110.125 33.8594C109.875 34.1094 109.609 34.3281 109.328 34.5156C109.078 34.6719 108.781 34.7031 108.438 34.6094C108 34.7031 107.562 34.7969 107.125 34.8906C106.688 34.9531 106.25 34.9844 105.812 34.9844C105.312 34.8281 105 34.6875 104.875 34.5625C104.75 34.4375 104.562 34.375 104.312 34.375C104.344 33.9375 104.25 33.6406 104.031 33.4844C104.031 33.3906 104.031 33.25 104.031 33.0625C104.062 32.8438 104.109 32.7031 104.172 32.6406C104.578 32.4531 104.812 32.25 104.875 32.0312C104.938 31.8125 105.109 31.6719 105.391 31.6094C105.453 31.4844 105.516 31.375 105.578 31.2812C105.672 31.1562 105.75 31.0312 105.812 30.9062C105.969 30.8438 106.094 30.7969 106.188 30.7656C106.312 30.7344 106.406 30.6406 106.469 30.4844C106.625 30.4844 106.859 30.3906 107.172 30.2031C107.484 29.9844 107.688 29.8125 107.781 29.6875C108.031 29.5938 108.188 29.5156 108.25 29.4531C108.312 29.3594 108.391 29.2812 108.484 29.2188C108.797 29.25 109 29.2188 109.094 29.125C109.344 29.25 109.625 29.3125 109.938 29.3125C110.062 29.3125 110.172 29.3125 110.266 29.3125C110.359 29.2812 110.469 29.2656 110.594 29.2656C110.844 29.0156 111.156 28.8594 111.531 28.7969C111.938 28.7031 112.266 28.5312 112.516 28.2812C112.422 28.0312 112.344 27.7344 112.281 27.3906C112.219 27.0156 112.109 26.7188 111.953 26.5C111.891 26.0938 111.781 25.7031 111.625 25.3281C111.5 24.9531 111.391 24.5938 111.297 24.25C110.953 22.9375 110.547 21.6562 110.078 20.4062C109.609 19.1562 109.219 17.875 108.906 16.5625C108.844 16.4062 108.766 16.25 108.672 16.0938C108.609 15.9062 108.547 15.7344 108.484 15.5781C108.328 15.9531 108.25 16.1719 108.25 16.2344C108.25 16.2656 108.219 16.3125 108.156 16.375C108.125 16.5312 108.094 16.6719 108.062 16.7969C108.031 16.8906 107.984 17.0156 107.922 17.1719C107.828 17.4219 107.734 17.7031 107.641 18.0156C107.578 18.2969 107.516 18.5625 107.453 18.8125C107.297 19.3438 107.156 19.9062 107.031 20.5C106.906 21.0625 106.766 21.625 106.609 22.1875C106.297 23.1562 105.969 24.125 105.625 25.0938C105.312 26.0312 105 26.9844 104.688 27.9531C104.625 28.3906 104.547 28.7344 104.453 28.9844C104.391 29.2031 104.312 29.4375 104.219 29.6875C104.156 29.9062 104.094 30.125 104.031 30.3438C104 30.5625 103.984 30.7344 103.984 30.8594C103.547 31.8594 103.172 32.875 102.859 33.9062C102.578 34.9375 102.219 35.9375 101.781 36.9062C101.656 36.9688 101.547 37.0469 101.453 37.1406C101.359 37.2344 101.25 37.2812 101.125 37.2812C100.875 37.2812 100.734 37.2188 100.703 37.0938C100.703 36.9688 100.641 36.9062 100.516 36.9062C100.391 36.9062 100.281 36.9375 100.188 37C100.094 37.0312 100 37.0781 99.9062 37.1406C99.75 37.0781 99.5625 37.0312 99.3438 37C99.1562 37 99.0156 36.9375 98.9219 36.8125C98.7031 36.9688 98.4844 37.0469 98.2656 37.0469C98.0156 37.0469 97.7656 36.9688 97.5156 36.8125C97.3281 36.875 97.1406 36.9062 96.9531 36.9062C96.8594 36.9062 96.75 36.8906 96.625 36.8594C96.5 36.8281 96.4062 36.7812 96.3438 36.7188C96.3125 36.5938 96.2969 36.4688 96.2969 36.3438C96.2969 36.2188 96.2969 36.0781 96.2969 35.9219C96.2969 35.6094 96.2656 35.375 96.2031 35.2188C96.7656 33.625 97.3125 32.0156 97.8438 30.3906C98.375 28.7344 98.9062 27.0625 99.4375 25.375C99.7188 24.5938 99.9844 23.8281 100.234 23.0781C100.516 22.3281 100.781 21.5625 101.031 20.7812C101.156 20.3438 101.266 19.9375 101.359 19.5625C101.453 19.1562 101.578 18.7656 101.734 18.3906C101.984 17.5781 102.234 16.7656 102.484 15.9531C102.766 15.1094 103.016 14.2812 103.234 13.4688C103.359 13.375 103.438 13.2656 103.469 13.1406C103.5 13.0156 103.547 12.875 103.609 12.7188L103.562 12.1094C103.781 11.7969 103.922 11.5312 103.984 11.3125C104.078 11.0625 104.141 10.8125 104.172 10.5625C104.328 10.1875 104.469 9.78125 104.594 9.34375C104.719 8.90625 104.812 8.5 104.875 8.125C104.938 7.625 104.969 7.0625 104.969 6.4375C105 5.78125 105.094 5.23438 105.25 4.79688C105.312 4.67188 105.359 4.59375 105.391 4.5625C105.453 4.5 105.484 4.39063 105.484 4.23438C105.547 4.17187 105.609 4.10938 105.672 4.04688C105.766 3.95312 105.828 3.85938 105.859 3.76562C106.016 3.51562 106.062 3.29688 106 3.10938C105.969 2.92188 105.953 2.71875 105.953 2.5C106.234 2.34375 106.359 2.20312 106.328 2.07812C106.297 1.95313 106.281 1.82812 106.281 1.70312C106.281 1.54687 106.375 1.40625 106.562 1.28125C106.781 1.125 106.922 0.96875 106.984 0.8125C107.172 0.84375 107.359 0.875 107.547 0.90625C107.734 0.90625 107.922 0.890625 108.109 0.859375C108.328 1.26562 108.594 1.46875 108.906 1.46875L109 1.51562ZM156.344 36.8594C156.188 37.0156 156.016 37.1094 155.828 37.1406C155.641 37.1719 155.453 37.1875 155.266 37.1875C154.797 37.4062 154.297 37.5156 153.766 37.5156C153.422 37.3281 153.234 37.2656 153.203 37.3281C153.172 37.3906 153.109 37.4531 153.016 37.5156C152.547 37.7344 152.125 37.8438 151.75 37.8438C151.375 37.875 151.062 37.9688 150.812 38.125C150.562 37.9375 150.422 37.6562 150.391 37.2812C150.391 36.9375 150.359 36.6406 150.297 36.3906C150.141 36.1719 150.031 35.9062 149.969 35.5938C149.906 35.25 149.859 34.9062 149.828 34.5625C149.797 34.2188 149.75 33.8906 149.688 33.5781C149.656 33.2344 149.578 32.9375 149.453 32.6875C149.422 32.5312 149.406 32.3906 149.406 32.2656C149.438 32.1406 149.422 32 149.359 31.8438C149.391 31.3125 149.375 30.8906 149.312 30.5781C149.25 30.2656 149.188 29.9375 149.125 29.5938C149.094 29.4062 149.078 29.2031 149.078 28.9844C149.078 28.7344 148.984 28.5469 148.797 28.4219C148.891 27.9844 148.906 27.6562 148.844 27.4375C148.781 27.2188 148.734 27.0156 148.703 26.8281C148.672 26.5781 148.656 26.3125 148.656 26.0312C148.656 25.7188 148.625 25.4375 148.562 25.1875C148.375 23.6875 148.172 22.1875 147.953 20.6875C147.734 19.1875 147.531 17.6875 147.344 16.1875C147.156 16.3438 147.016 16.5781 146.922 16.8906C146.859 17.2031 146.797 17.4844 146.734 17.7344C146.547 18.2969 146.375 18.875 146.219 19.4688C146.062 20.0625 145.906 20.6406 145.75 21.2031C145.688 21.4531 145.625 21.75 145.562 22.0938C145.531 22.4062 145.469 22.6875 145.375 22.9375C145.062 23.8438 144.781 24.625 144.531 25.2812C144.312 25.9375 144.094 26.6094 143.875 27.2969C143.812 27.6719 143.75 28.0312 143.688 28.375C143.625 28.7188 143.562 29.0625 143.5 29.4062C143.469 29.5938 143.422 29.8594 143.359 30.2031C143.297 30.5469 143.234 30.7969 143.172 30.9531C143.109 31.1094 143.047 31.2188 142.984 31.2812C142.953 31.3438 142.953 31.4531 142.984 31.6094C142.672 32.0781 142.453 32.5938 142.328 33.1562C142.234 33.7188 142.047 34.2656 141.766 34.7969C141.766 35.1719 141.625 35.5 141.344 35.7812C141.188 35.8125 141.031 35.8438 140.875 35.875C140.75 35.9062 140.609 35.9688 140.453 36.0625C140.297 36 140.109 35.9688 139.891 35.9688C139.703 35.9375 139.516 35.9219 139.328 35.9219C139.172 35.8906 139.031 35.8438 138.906 35.7812C138.781 35.6875 138.641 35.625 138.484 35.5938C138.328 35.4062 138.156 35.25 137.969 35.125C137.781 34.9688 137.594 34.8125 137.406 34.6562C137.219 34.1875 137.047 33.875 136.891 33.7188C136.797 33.375 136.672 33.0625 136.516 32.7812C136.359 32.4688 136.25 32.125 136.188 31.75C136.094 31.4062 135.969 31.0938 135.812 30.8125C135.688 30.5 135.547 30.1719 135.391 29.8281C135.328 29.6094 135.25 29.4062 135.156 29.2188C135.094 29 135.016 28.7812 134.922 28.5625C134.891 28.3125 134.797 28 134.641 27.625C134.516 27.25 134.422 26.9219 134.359 26.6406C134.359 26.6094 134.297 26.4531 134.172 26.1719C134.078 25.8594 133.969 25.5312 133.844 25.1875C133.75 24.8438 133.641 24.5312 133.516 24.25C133.422 23.9688 133.359 23.8125 133.328 23.7812C133.266 23.625 133.203 23.4844 133.141 23.3594C133.109 23.2031 133.062 23.0312 133 22.8438C132.875 22.4375 132.719 22.0312 132.531 21.625C132.344 21.1875 132.156 20.7812 131.969 20.4062C131.812 20.0938 131.703 19.7969 131.641 19.5156C131.578 19.2031 131.5 18.9062 131.406 18.625C131.344 18.4688 131.281 18.3281 131.219 18.2031C131.188 18.0781 131.141 17.9375 131.078 17.7812C131.016 17.5938 130.953 17.4062 130.891 17.2188C130.828 17 130.766 16.7812 130.703 16.5625C130.547 16.625 130.469 16.7656 130.469 16.9844C130.5 17.1719 130.5 17.3438 130.469 17.5C130.406 17.8438 130.375 18.1875 130.375 18.5312C130.375 18.8438 130.359 19.1719 130.328 19.5156C130.266 19.8906 130.203 20.25 130.141 20.5938C130.078 20.9375 130.031 21.2812 130 21.625C130 22.4688 129.953 23.3125 129.859 24.1562C129.797 24.9062 129.719 25.6719 129.625 26.4531C129.531 27.2031 129.469 27.9844 129.438 28.7969C129.438 29.3906 129.375 29.9844 129.25 30.5781C129.125 31.1406 129.094 31.7344 129.156 32.3594C129.094 32.4844 129.062 32.5781 129.062 32.6406C129.062 32.7031 129.062 32.7969 129.062 32.9219C129.062 33.0781 129.047 33.25 129.016 33.4375C129.016 33.625 129.016 33.7969 129.016 33.9531C129.016 34.2344 129.047 34.4219 129.109 34.5156C129.016 34.7969 128.969 35.1094 128.969 35.4531C128.969 35.7656 128.969 36.0781 128.969 36.3906C128.906 36.5156 128.859 36.6406 128.828 36.7656C128.828 36.8906 128.781 37.0156 128.688 37.1406C128.719 37.6719 128.562 37.9375 128.219 37.9375C128.125 37.9375 128.016 37.9062 127.891 37.8438C127.797 37.8125 127.719 37.75 127.656 37.6562C127.312 37.6875 127.109 37.6094 127.047 37.4219C127.016 37.2344 126.922 37.1562 126.766 37.1875C126.391 37.3438 126.172 37.3906 126.109 37.3281C126.078 37.2656 125.984 37.25 125.828 37.2812C125.578 37.0312 125.406 36.9219 125.312 36.9531C125.25 36.9844 125.188 37 125.125 37C124.844 36.9062 124.688 36.8906 124.656 36.9531C124.625 36.9844 124.562 37 124.469 37C124.312 36.8438 124.094 36.7656 123.812 36.7656C123.562 36.7656 123.344 36.75 123.156 36.7188C123.125 36.5938 123.094 36.4844 123.062 36.3906C123.062 36.2656 123.062 36.125 123.062 35.9688C123.062 35.7812 123.062 35.6094 123.062 35.4531C123.094 35.2656 123.109 35.0781 123.109 34.8906C123.109 34.7344 123.094 34.5781 123.062 34.4219C123.062 34.2344 123.062 34.0312 123.062 33.8125C123.062 33.5938 123.078 33.3906 123.109 33.2031C123.141 32.9844 123.156 32.75 123.156 32.5C123.156 32.4062 123.141 32.3281 123.109 32.2656C123.078 32.1719 123.062 32.0625 123.062 31.9375C123.25 31.5312 123.328 31.2188 123.297 31C123.297 30.75 123.312 30.5156 123.344 30.2969C123.406 29.7656 123.453 29.25 123.484 28.75C123.547 28.2188 123.609 27.6875 123.672 27.1562C123.672 26.2812 123.688 25.5625 123.719 25C123.781 24.4062 123.859 23.8125 123.953 23.2188C124.016 22.9375 124.062 22.6719 124.094 22.4219C124.156 22.1719 124.219 21.9062 124.281 21.625C124.344 21.1562 124.375 20.6719 124.375 20.1719C124.406 19.6406 124.453 19.125 124.516 18.625C124.578 17.8438 124.656 17.0781 124.75 16.3281C124.844 15.5469 124.922 14.7812 124.984 14.0312C125.047 13.4375 125.109 12.8594 125.172 12.2969C125.266 11.7031 125.312 11.1406 125.312 10.6094C125.312 10.3281 125.344 9.96875 125.406 9.53125C125.5 9.09375 125.562 8.71875 125.594 8.40625C125.656 7.65625 125.703 6.92188 125.734 6.20312C125.797 5.48438 125.828 4.76563 125.828 4.04688V3.53125C125.828 3.46875 125.859 3.40625 125.922 3.34375C125.984 3.28125 126.016 3.17188 126.016 3.01562C126.016 2.73438 126.078 2.54688 126.203 2.45312C126.359 2.32813 126.484 2.14063 126.578 1.89062C126.734 1.89062 126.906 1.90625 127.094 1.9375C127.312 1.96875 127.469 2.0625 127.562 2.21875C127.781 2.15625 128 2.125 128.219 2.125C128.438 2.125 128.625 2.04688 128.781 1.89062C128.969 1.89062 129.109 1.9375 129.203 2.03125C129.297 2.125 129.422 2.20312 129.578 2.26562C129.703 2.20312 129.828 2.15625 129.953 2.125C130.078 2.0625 130.203 2 130.328 1.9375C130.422 2 130.484 2.07812 130.516 2.17188C130.578 2.23438 130.656 2.28125 130.75 2.3125C131.219 2.1875 131.531 2.17188 131.688 2.26562C131.75 2.39062 131.781 2.51563 131.781 2.64062C131.812 2.76562 131.844 2.89063 131.875 3.01562C132.188 3.32812 132.391 3.6875 132.484 4.09375C132.578 4.46875 132.75 4.8125 133 5.125C133.062 5.3125 133.125 5.5 133.188 5.6875C133.281 5.875 133.359 6.09375 133.422 6.34375L133.562 6.90625C133.688 7.21875 133.844 7.59375 134.031 8.03125C134.188 8.625 134.328 9.23438 134.453 9.85938C134.578 10.4844 134.781 11.0625 135.062 11.5938C135.094 11.7812 135.141 12.0156 135.203 12.2969C135.297 12.5469 135.375 12.7656 135.438 12.9531C135.656 13.4844 135.875 14.0156 136.094 14.5469C136.344 15.0469 136.562 15.5938 136.75 16.1875C136.938 16.7812 137.094 17.3906 137.219 18.0156C137.375 18.6406 137.562 19.25 137.781 19.8438C137.969 20.4062 138.109 20.8125 138.203 21.0625C138.297 21.3125 138.422 21.5625 138.578 21.8125C138.578 21.9062 138.594 22.0625 138.625 22.2812C138.688 22.5 138.766 22.7344 138.859 22.9844C138.953 23.2031 139.047 23.4219 139.141 23.6406C139.234 23.8281 139.328 23.9375 139.422 23.9688C139.516 23.9062 139.562 23.8125 139.562 23.6875C139.594 23.5625 139.656 23.4531 139.75 23.3594C139.781 23.0156 139.828 22.5938 139.891 22.0938C139.984 21.5938 140.109 21.1875 140.266 20.875C140.266 20.7188 140.297 20.4375 140.359 20.0312C140.453 19.5938 140.562 19.1406 140.688 18.6719C140.812 18.1719 140.922 17.7188 141.016 17.3125C141.141 16.9062 141.25 16.6562 141.344 16.5625C141.406 16.1562 141.453 15.9062 141.484 15.8125C141.547 15.7188 141.609 15.6406 141.672 15.5781C141.703 15.3281 141.766 15.0938 141.859 14.875C141.953 14.6562 142.016 14.4219 142.047 14.1719C142.109 13.6406 142.188 13.2031 142.281 12.8594C142.375 12.5156 142.5 12.0938 142.656 11.5938C142.781 11.1562 142.891 10.7188 142.984 10.2812C143.109 9.8125 143.25 9.35938 143.406 8.92188C143.781 7.73438 144.109 6.6875 144.391 5.78125C144.703 4.84375 145.078 3.9375 145.516 3.0625C145.609 2.78125 145.688 2.60938 145.75 2.54688C145.812 2.48437 145.875 2.42188 145.938 2.35938C146.188 2.26562 146.438 2.21875 146.688 2.21875C146.969 2.21875 147.25 2.23438 147.531 2.26562C147.844 2.14063 148.078 2 148.234 1.84375C148.359 2 148.547 2.07812 148.797 2.07812C149.109 2.07812 149.328 1.98438 149.453 1.79688C149.578 1.85938 149.672 1.875 149.734 1.84375C149.828 1.8125 149.953 1.82812 150.109 1.89062C150.172 1.82812 150.25 1.76563 150.344 1.70312C150.438 1.60938 150.531 1.5625 150.625 1.5625C150.875 1.875 151.062 2.125 151.188 2.3125C151.344 2.46875 151.453 2.65625 151.516 2.875C151.609 3.15625 151.656 3.46875 151.656 3.8125C151.688 4.125 151.781 4.42188 151.938 4.70312C151.906 5.10938 151.922 5.73438 151.984 6.57812C152.078 7.39062 152.172 8.26562 152.266 9.20312C152.391 10.1094 152.516 10.9531 152.641 11.7344C152.766 12.5156 152.875 13 152.969 13.1875C152.938 13.5938 152.953 13.9375 153.016 14.2188C153.078 14.5 153.109 14.7812 153.109 15.0625C153.109 15.1562 153.125 15.3594 153.156 15.6719C153.188 15.9531 153.219 16.2656 153.25 16.6094C153.281 16.9219 153.312 17.2344 153.344 17.5469C153.406 17.8281 153.453 18.0312 153.484 18.1562C153.484 18.7188 153.578 19.1562 153.766 19.4688C153.922 20.25 154.047 21.0312 154.141 21.8125C154.266 22.5938 154.375 23.3906 154.469 24.2031C154.531 24.6094 154.562 25 154.562 25.375C154.594 25.75 154.641 26.1406 154.703 26.5469C154.734 26.7031 154.766 26.8594 154.797 27.0156C154.859 27.1719 154.906 27.3281 154.938 27.4844C155 27.7969 155.047 28.0938 155.078 28.375C155.109 28.6562 155.156 28.9375 155.219 29.2188C155.25 29.375 155.297 29.5469 155.359 29.7344C155.422 29.8906 155.422 30.0625 155.359 30.25C155.422 30.4688 155.438 30.7031 155.406 30.9531C155.406 31.2031 155.469 31.4219 155.594 31.6094C155.594 32.2656 155.641 32.8438 155.734 33.3438C155.766 33.7188 155.859 34.0938 156.016 34.4688C156.078 34.8438 156.125 35.2344 156.156 35.6406C156.219 36.0469 156.281 36.4531 156.344 36.8594ZM167.5 24.7188C167.562 24.875 167.781 25.2031 168.156 25.7031C168.562 26.2031 169.016 26.75 169.516 27.3438C170.016 27.9375 170.484 28.5156 170.922 29.0781C171.391 29.6094 171.719 30 171.906 30.25C172.25 30.6875 172.578 31.125 172.891 31.5625C173.234 31.9688 173.547 32.4062 173.828 32.875L174.672 34.2812C174.922 34.5938 175.141 34.8594 175.328 35.0781C175.547 35.2969 175.719 35.5938 175.844 35.9688C175.906 36.2188 175.938 36.3906 175.938 36.4844C175.938 36.7031 175.859 36.8594 175.703 36.9531C175.453 36.9531 175.312 36.9844 175.281 37.0469C175.281 37.1406 175.219 37.2188 175.094 37.2812C174.969 37.3438 174.766 37.375 174.484 37.375C174.234 37.4062 174.031 37.4219 173.875 37.4219C173.594 37.4219 173.234 37.4062 172.797 37.375C172.391 37.375 172.062 37.4219 171.812 37.5156C171.75 37.5469 171.656 37.5938 171.531 37.6562C171.406 37.7188 171.312 37.75 171.25 37.75C171 37.75 170.812 37.7031 170.688 37.6094C170.594 37.5469 170.453 37.5 170.266 37.4688C170.016 37.1875 169.797 36.9062 169.609 36.625C169.453 36.3125 169.266 36 169.047 35.6875C168.828 35.4688 168.609 35.2812 168.391 35.125C168.172 34.9375 167.984 34.7344 167.828 34.5156C167.359 33.8281 166.875 33.1562 166.375 32.5C165.875 31.8438 165.359 31.2031 164.828 30.5781C164.578 30.2344 164.312 29.9219 164.031 29.6406C163.75 29.3594 163.484 29.0469 163.234 28.7031C162.984 28.3906 162.75 28.0625 162.531 27.7188C162.312 27.3438 162.094 26.9844 161.875 26.6406C161.688 26.3594 161.438 26 161.125 25.5625C160.812 25.0938 160.469 24.6406 160.094 24.2031C159.719 23.7344 159.344 23.2969 158.969 22.8906C158.594 22.4844 158.281 22.1719 158.031 21.9531C158 21.7656 157.922 21.625 157.797 21.5312C157.672 21.4062 157.531 21.2969 157.375 21.2031C157.312 21.0469 157.25 20.9062 157.188 20.7812C157.094 20.625 157.047 20.4688 157.047 20.3125C157.047 20.0938 157.094 19.8906 157.188 19.7031C157.25 19.5781 157.297 19.4688 157.328 19.375C157.328 19.25 157.359 19.125 157.422 19C157.578 18.6562 157.781 18.3281 158.031 18.0156C158.312 17.6719 158.531 17.3125 158.688 16.9375C158.75 16.8438 158.781 16.75 158.781 16.6562C158.781 16.5312 158.812 16.4219 158.875 16.3281C158.938 16.0781 159.062 15.875 159.25 15.7188C159.469 15.5312 159.641 15.3281 159.766 15.1094C159.922 14.8594 160.062 14.6094 160.188 14.3594C160.344 14.0781 160.5 13.7812 160.656 13.4688C161.125 12.6875 161.609 11.9375 162.109 11.2188C162.641 10.4688 163.172 9.71875 163.703 8.96875C164.109 8.34375 164.5 7.75 164.875 7.1875C165.281 6.59375 165.688 6 166.094 5.40625C166.312 5.125 166.547 4.79688 166.797 4.42188C167.047 4.04688 167.312 3.67188 167.594 3.29688C167.906 2.92188 168.219 2.57812 168.531 2.26562C168.844 1.95313 169.156 1.70312 169.469 1.51562C169.938 1.48438 170.25 1.59375 170.406 1.84375C170.562 2.0625 170.797 2.17188 171.109 2.17188C171.516 2.26562 171.781 2.39062 171.906 2.54688C172.031 2.70313 172.172 2.85937 172.328 3.01562C172.766 3.01562 173.109 3.09375 173.359 3.25C173.641 3.40625 173.906 3.64063 174.156 3.95312C174.062 4.29688 173.922 4.60938 173.734 4.89062C173.547 5.14062 173.375 5.40625 173.219 5.6875C172.969 5.8125 172.781 5.98438 172.656 6.20312C172.562 6.42188 172.406 6.59375 172.188 6.71875C171.875 7.25 171.547 7.76562 171.203 8.26562C170.859 8.73438 170.516 9.20312 170.172 9.67188C169.984 9.95312 169.781 10.2031 169.562 10.4219C169.375 10.6406 169.203 10.875 169.047 11.125C168.984 11.2188 168.922 11.3281 168.859 11.4531C168.828 11.5469 168.781 11.6406 168.719 11.7344C168.344 12.3281 167.938 12.8906 167.5 13.4219C167.062 13.9219 166.656 14.4844 166.281 15.1094C166.156 15.3281 166.047 15.5625 165.953 15.8125C165.891 16.0312 165.797 16.25 165.672 16.4688C165.547 16.6562 165.359 16.9062 165.109 17.2188C164.891 17.5312 164.672 17.875 164.453 18.25C164.234 18.5938 164.031 18.9375 163.844 19.2812C163.688 19.5938 163.609 19.8594 163.609 20.0781C163.641 20.2344 163.828 20.5469 164.172 21.0156C164.547 21.4531 164.953 21.9375 165.391 22.4688C165.859 22.9688 166.297 23.4531 166.703 23.9219C167.109 24.3594 167.375 24.625 167.5 24.7188ZM170.594 16.1875C170.812 16.6562 171.047 17.0625 171.297 17.4062C171.391 17.5312 171.5 17.6406 171.625 17.7344C171.75 17.8281 171.844 17.9531 171.906 18.1094C171.969 18.1719 172.031 18.3125 172.094 18.5312C172.156 18.7188 172.219 18.8594 172.281 18.9531C172.375 19.2031 172.562 19.4844 172.844 19.7969C173.125 20.1094 173.266 20.3906 173.266 20.6406C173.266 20.7969 173.234 20.9688 173.172 21.1562C173.109 21.3438 173.062 21.5156 173.031 21.6719C173 21.8594 172.984 22.0625 172.984 22.2812C172.984 22.4688 172.922 22.6406 172.797 22.7969C172.641 22.9531 172.469 23.0469 172.281 23.0781C172.094 23.1094 171.922 23.1875 171.766 23.3125C171.703 23.375 171.609 23.4844 171.484 23.6406C171.359 23.7969 171.234 23.9688 171.109 24.1562C170.984 24.3438 170.859 24.5312 170.734 24.7188C170.641 24.875 170.594 25 170.594 25.0938C170.219 25.125 169.969 25.1406 169.844 25.1406C169.75 25.1094 169.641 25.1094 169.516 25.1406C169.359 24.9844 169.188 24.8594 169 24.7656C168.844 24.6406 168.641 24.5312 168.391 24.4375C168.328 24.1875 168.188 23.9062 167.969 23.5938C167.75 23.25 167.562 22.9688 167.406 22.75L167.078 22.3281C166.609 21.6719 166.172 21.0469 165.766 20.4531C165.391 19.8281 165.109 19.1406 164.922 18.3906C165.516 17.9531 165.969 17.625 166.281 17.4062C166.625 17.1875 166.984 16.9844 167.359 16.7969C167.734 16.6094 168.094 16.4375 168.438 16.2812C168.812 16.0938 169.156 15.875 169.469 15.625C169.719 15.625 169.891 15.6406 169.984 15.6719C170.078 15.7031 170.141 15.7344 170.172 15.7656C170.203 15.7969 170.234 15.8594 170.266 15.9531C170.328 16.0156 170.438 16.0938 170.594 16.1875ZM187.703 2.45312C187.766 2.57812 187.828 2.67187 187.891 2.73438C187.984 2.76562 188.047 2.85937 188.078 3.01562C188.297 3.17188 188.469 3.29688 188.594 3.39062C188.719 3.45313 188.797 3.57812 188.828 3.76562C189.109 3.98437 189.266 4.125 189.297 4.1875C189.359 4.25 189.406 4.32812 189.438 4.42188C189.594 4.54687 189.734 4.65625 189.859 4.75C190.016 4.84375 190.125 4.98438 190.188 5.17188C190.438 5.39062 190.594 5.5625 190.656 5.6875C190.719 5.8125 190.766 5.95312 190.797 6.10938C190.672 6.32812 190.422 6.625 190.047 7C189.672 7.375 189.25 7.78125 188.781 8.21875C188.312 8.625 187.859 9.03125 187.422 9.4375C186.984 9.8125 186.641 10.1094 186.391 10.3281C186.328 10.4531 186.25 10.5625 186.156 10.6562C186.062 10.75 185.984 10.8594 185.922 10.9844C185.734 11.1406 185.562 11.3125 185.406 11.5C185.25 11.6562 185.062 11.7812 184.844 11.875C184.531 12.3125 184.094 12.75 183.531 13.1875C182.969 13.5938 182.594 14 182.406 14.4062C182.438 14.5 182.5 14.5938 182.594 14.6875C182.719 14.7812 182.812 14.8594 182.875 14.9219C183.125 15.1719 183.422 15.4062 183.766 15.625C184.109 15.8125 184.406 16.0312 184.656 16.2812C184.906 16.5 185.156 16.7188 185.406 16.9375C185.656 17.125 185.906 17.3281 186.156 17.5469C186.281 17.6719 186.438 17.8594 186.625 18.1094C186.938 18.3594 187.234 18.5938 187.516 18.8125C187.828 19 188.125 19.2188 188.406 19.4688C189 19.9688 189.578 20.4844 190.141 21.0156C190.703 21.5156 191.297 22.0156 191.922 22.5156L192.297 22.9375C192.297 23.1875 192.359 23.4844 192.484 23.8281C192.641 24.1406 192.781 24.4062 192.906 24.625C192.844 24.9375 192.844 25.1406 192.906 25.2344C193 25.2969 193.078 25.3594 193.141 25.4219C193.109 26.0156 193.125 26.4062 193.188 26.5938C192.656 27.0625 192.156 27.5 191.688 27.9062C191.25 28.2812 190.859 28.6562 190.516 29.0312C190.234 29.375 189.938 29.6875 189.625 29.9688C189.344 30.2188 189.031 30.5 188.688 30.8125C188.5 31.0625 188.344 31.2344 188.219 31.3281C188 31.5469 187.781 31.7188 187.562 31.8438C187.188 32.1875 186.812 32.5156 186.438 32.8281C186.094 33.1406 185.75 33.4531 185.406 33.7656C185.156 33.9844 184.922 34.2031 184.703 34.4219C184.484 34.6094 184.266 34.8281 184.047 35.0781C183.859 35.2656 183.641 35.4844 183.391 35.7344C183.172 35.9844 182.938 36.1875 182.688 36.3438C182.594 36.5312 182.469 36.7031 182.312 36.8594C182.156 36.9844 182.016 37.125 181.891 37.2812C181.672 37.4062 181.469 37.5312 181.281 37.6562C181.094 37.7812 180.875 37.9062 180.625 38.0312C180.375 37.8438 180.125 37.6719 179.875 37.5156C179.656 37.3594 179.406 37.25 179.125 37.1875C178.938 37.0312 178.797 36.875 178.703 36.7188C178.609 36.5625 178.438 36.4531 178.188 36.3906C178.125 36.2969 178.047 36.2031 177.953 36.1094C177.891 35.9844 177.828 35.8594 177.766 35.7344C177.391 35.7031 177.094 35.4688 176.875 35.0312C176.938 34.8438 177.016 34.7031 177.109 34.6094C177.234 34.5156 177.266 34.3438 177.203 34.0938C177.391 33.7812 177.609 33.5156 177.859 33.2969C178.141 33.0469 178.406 32.7969 178.656 32.5469C178.938 32.2969 179.188 32.0469 179.406 31.7969C179.656 31.5156 179.922 31.25 180.203 31C180.359 30.8438 180.516 30.7031 180.672 30.5781C180.828 30.4219 181 30.2656 181.188 30.1094C181.531 29.7656 181.875 29.4531 182.219 29.1719C182.594 28.8594 182.969 28.5312 183.344 28.1875C183.844 27.6875 184.359 27.2188 184.891 26.7812C185.422 26.3125 185.906 25.7969 186.344 25.2344C186.312 25.1094 186.266 25.0312 186.203 25C186.141 24.9375 186.094 24.8594 186.062 24.7656C185.562 24.2969 185.062 23.8438 184.562 23.4062C184.094 22.9375 183.578 22.5312 183.016 22.1875C182.828 22 182.703 21.8438 182.641 21.7188C182.078 21.3125 181.531 20.8594 181 20.3594C180.5 19.8594 179.938 19.4375 179.312 19.0938C179.188 18.9375 179.031 18.8125 178.844 18.7188C178.688 18.5938 178.531 18.4844 178.375 18.3906C178.281 18.2344 178.172 18.1094 178.047 18.0156C177.953 17.8906 177.828 17.7969 177.672 17.7344C177.422 17.5156 177.25 17.3438 177.156 17.2188C177.094 17.0625 176.969 16.9688 176.781 16.9375C176.719 16.7812 176.609 16.6562 176.453 16.5625C176.328 16.4688 176.188 16.3594 176.031 16.2344C175.969 16.0469 175.875 15.8906 175.75 15.7656C175.719 15.5156 175.734 15.3438 175.797 15.25C175.859 15.125 175.906 15.0312 175.938 14.9688C175.906 14.7812 175.828 14.6406 175.703 14.5469C175.547 14.4531 175.469 14.2969 175.469 14.0781C175.469 13.9531 175.516 13.875 175.609 13.8438C175.672 13.7812 175.719 13.7031 175.75 13.6094L175.891 12.9062C176.141 12.7188 176.344 12.5 176.5 12.25C176.688 11.9688 176.922 11.75 177.203 11.5938C177.516 11.125 177.906 10.7344 178.375 10.4219C178.531 10.1719 178.719 9.96875 178.938 9.8125C179.188 9.65625 179.391 9.45312 179.547 9.20312C179.797 9.04688 180 8.875 180.156 8.6875C180.344 8.5 180.562 8.32812 180.812 8.17188C180.875 8.04688 180.938 7.95312 181 7.89062C181.094 7.79688 181.156 7.70312 181.188 7.60938C182.031 6.79688 182.766 6.09375 183.391 5.5C184.047 4.90625 184.719 4.3125 185.406 3.71875C185.594 3.5625 185.781 3.39062 185.969 3.20312C186.156 3.01562 186.359 2.84375 186.578 2.6875C186.641 2.625 186.719 2.59375 186.812 2.59375C186.906 2.59375 187 2.5625 187.094 2.5C187.469 2.5 187.672 2.48437 187.703 2.45312Z" fill="#100F0F"/>
</svg>
